<svg xmlns="http://www.w3.org/2000/svg" xmlns:xlink="http://www.w3.org/1999/xlink" width="51" height="72" viewBox="0 0 51 72"><defs><path id="g7yfa" d="M316 293a10 10 0 0 1 10-10h27a10 10 0 0 1 10 10v52a10 10 0 0 1-10 10h-27a10 10 0 0 1-10-10z"/><path id="g7yfb" d="M317 319v-1h46v1z"/><path id="g7yfc" d="M364 315a1 1 0 0 1 1 1v6a1 1 0 0 1-1 1c-.55 0-2-.45-2-1v-6c0-.55 1.45-1 2-1z"/><path id="g7yfd" d="M316 315a1 1 0 0 1 1 1v6a1 1 0 0 1-1 1c-.55 0-2-.45-2-1v-6c0-.55 1.45-1 2-1z"/><clipPath id="g7yfe"><use fill="#fff" xlink:href="#g7yfa"/></clipPath><clipPath id="g7yff"><use fill="#fff" xlink:href="#g7yfb"/></clipPath></defs><g><g transform="translate(-314 -283)"><use fill="#afc3e2" xlink:href="#g7yfc"/></g><g transform="translate(-314 -283)"><use fill="#afc3e2" xlink:href="#g7yfd"/></g><g transform="translate(-314 -283)"><use fill="#fff" fill-opacity="0" stroke="#afc3e2" stroke-miterlimit="50" stroke-width="2" clip-path="url(&quot;#g7yfe&quot;)" xlink:href="#g7yfa"/></g><g transform="translate(-314 -283)"><use fill="#fff" fill-opacity="0" stroke="#afc3e2" stroke-miterlimit="50" stroke-width="4" clip-path="url(&quot;#g7yff&quot;)" xlink:href="#g7yfb"/></g></g></svg>
