<svg xmlns="http://www.w3.org/2000/svg" width="30" height="30"><path d="M15 30C6.7 30 0 23.3 0 15 0 6.7 6.7 0 15 0 23.3 0 30 6.7 30 15 30 23.3 23.3 30 15 30ZM23.5 13.2L23.5 9.8C23.5 7.9 22 6.5 20.2 6.5L9.8 6.5C7.9 6.5 6.5 7.9 6.5 9.8L6.5 13.2 6.5 20.2C6.5 22.1 7.9 23.5 9.8 23.5L20.2 23.5C22 23.5 23.5 22.1 23.5 20.2L23.5 13.2ZM20.2 21.9L9.8 21.9C8.9 21.9 8.1 21.1 8.1 20.2L8.1 13.2 10.7 13.2C10.5 13.8 10.3 14.4 10.3 15 10.3 17.6 12.4 19.7 15 19.7 17.6 19.7 19.7 17.6 19.7 15 19.7 14.4 19.5 13.8 19.3 13.2L21.9 13.2 21.9 20.2C21.9 21.1 21.1 21.9 20.2 21.9ZM18.7 8.4L21.2 8.4 21.6 8.4 21.6 8.8 21.6 11.3 18.7 11.3 18.7 8.4ZM15 18C13.3 18 12 16.7 12 15 12 14.3 12.2 13.7 12.6 13.2 13.1 12.5 14 12 15 12 16 12 16.9 12.5 17.4 13.2 17.8 13.7 18 14.3 18 15 18 16.7 16.7 18 15 18Z" fill="rgb(36, 91, 171)"/></svg>
