<svg xmlns="http://www.w3.org/2000/svg" width="30" height="30"><path d="M15 0C6.7 0 0 6.7 0 15 0 23.3 6.7 30 15 30 23.3 30 30 23.3 30 15 30 6.7 23.3 0 15 0ZM22.6 16.6C23.3 17.3 24 17.9 24.7 18.7 25 19 25.2 19.4 25.4 19.8 25.7 20.3 25.4 20.9 24.9 21L21.9 21C21.1 21 20.4 20.7 19.9 20.2 19.5 19.7 19.1 19.3 18.7 18.8 18.5 18.6 18.3 18.5 18.1 18.3 17.7 18.1 17.4 18.1 17.1 18.6 16.9 19 16.8 19.5 16.8 20 16.8 20.7 16.5 20.9 15.8 21 14.3 21 12.8 20.8 11.4 20 10.2 19.3 9.3 18.3 8.5 17.2 6.9 15.1 5.7 12.7 4.6 10.3 4.3 9.8 4.5 9.5 5.1 9.4 6.1 9.4 7.1 9.4 8.1 9.4 8.5 9.5 8.8 9.7 8.9 10.1 9.5 11.4 10.1 12.7 11 13.9 11.2 14.2 11.4 14.5 11.7 14.7 12.1 14.9 12.4 14.9 12.5 14.5 12.7 14.2 12.7 13.9 12.7 13.7 12.8 12.7 12.8 11.8 12.7 10.9 12.6 10.3 12.3 9.9 11.7 9.8 11.4 9.8 11.4 9.7 11.6 9.5 11.8 9.2 12.1 9 12.5 9L16 9C16.5 9.1 16.7 9.4 16.7 9.9L16.7 13.8C16.7 14 16.8 14.6 17.2 14.8 17.5 14.9 17.7 14.6 17.9 14.4 18.8 13.6 19.3 12.5 19.9 11.4 20.1 11 20.3 10.5 20.5 10 20.7 9.6 20.9 9.4 21.3 9.4L24.6 9.4C24.7 9.4 24.8 9.4 24.9 9.5 25.5 9.6 25.7 9.8 25.5 10.3 25.2 11.2 24.7 11.9 24.2 12.6 23.6 13.4 23 14.2 22.4 14.9 21.9 15.7 22 16 22.6 16.6Z" fill="rgb(36, 91, 171)"/></svg>
